# xmcd CD database file
#
# Track frame offsets:
#	150
#	15154
#	26410
#	32198
#	46821
#	60081
#	75141
#	99189
#	127714
#	150516
#	168132
#	180695
#
# Disc length: 2786 seconds
#
# Revision: 0
# Processed by: cddbd v1.5.2PL0 Copyright (c) Steve Scherf et al.
# Submitted via: CDex 1.70beta2
#
DISCID=680ae00c
DTITLE=Ofer Golany - Dream8
DYEAR=2007
DGENRE=Jazz
TTITLE0=Klezmer Spiel a Nigun
TTITLE1=Conspiracy - Positively Paranoid
TTITLE2=Be my Friend
TTITLE3=Ego
TTITLE4=Potyomkin
TTITLE5=Jazz Musician Angels
TTITLE6=On the Road to find out
TTITLE7=Dream8
TTITLE8=Healing Prayer
TTITLE9=Finger Psalm
TTITLE10=Traveler's Prayer
TTITLE11=Euwigheid - Eternity
EXTD=YEAR: 2007
EXTT0=
EXTT1=
EXTT2=
EXTT3=
EXTT4=
EXTT5=
EXTT6=
EXTT7=
EXTT8=
EXTT9=
EXTT10=
EXTT11=
PLAYORDER=
